<mxfile host="app.diagrams.net" modified="2023-11-16T13:16:08.618Z" agent="Mozilla/5.0 (Windows NT 10.0; Win64; x64) AppleWebKit/537.36 (KHTML, like Gecko) Chrome/119.0.0.0 Safari/537.36 Edg/119.0.0.0" version="21.7.5" etag="E_IsRHVX9RiN99uKxKmr" type="github">
  <diagram name="第 1 页" id="blZ6Hque6HxMYcn_j2YN">
    <mxGraphModel>
      <root>
        <mxCell id="0" />
        <mxCell id="1" parent="0" />
      </root>
    </mxGraphModel>
  </diagram>
</mxfile>
